<svg aria-hidden="true" style="position: absolute; width: 0; height: 0; overflow: hidden;" version="1.1" xmlns="http://www.w3.org/2000/svg" xmlns:xlink="http://www.w3.org/1999/xlink">
<defs>
<symbol id="icon-burger" viewBox="0 0 32 32">
<path d="M2 6h28v6h-28zM2 14h28v6h-28zM2 22h28v6h-28z"></path>
</symbol>
<symbol id="icon-close" viewBox="0 0 32 32">
<path d="M31.708 25.708c-0-0-0-0-0-0l-9.708-9.708 9.708-9.708c0-0 0-0 0-0 0.105-0.105 0.18-0.227 0.229-0.357 0.133-0.356 0.057-0.771-0.229-1.057l-4.586-4.586c-0.286-0.286-0.702-0.361-1.057-0.229-0.13 0.048-0.252 0.124-0.357 0.228 0 0-0 0-0 0l-9.708 9.708-9.708-9.708c-0-0-0-0-0-0-0.105-0.104-0.227-0.18-0.357-0.228-0.356-0.133-0.771-0.057-1.057 0.229l-4.586 4.586c-0.286 0.286-0.361 0.702-0.229 1.057 0.049 0.13 0.124 0.252 0.229 0.357 0 0 0 0 0 0l9.708 9.708-9.708 9.708c-0 0-0 0-0 0-0.104 0.105-0.18 0.227-0.229 0.357-0.133 0.355-0.057 0.771 0.229 1.057l4.586 4.586c0.286 0.286 0.702 0.361 1.057 0.229 0.13-0.049 0.252-0.124 0.357-0.229 0-0 0-0 0-0l9.708-9.708 9.708 9.708c0 0 0 0 0 0 0.105 0.105 0.227 0.18 0.357 0.229 0.356 0.133 0.771 0.057 1.057-0.229l4.586-4.586c0.286-0.286 0.362-0.702 0.229-1.057-0.049-0.13-0.124-0.252-0.229-0.357z"></path>
</symbol>
<symbol id="icon-paws" viewBox="0 0 32 32">
<path d="M19.563 16.25c0.225 0.192 0.44 0.392 0.654 0.597 0.128 0.122 0.259 0.24 0.39 0.359 0.288 0.261 0.568 0.529 0.84 0.806 0.114 0.112 0.232 0.217 0.354 0.321 0.212 0.182 0.41 0.376 0.605 0.574 0.192 0.195 0.385 0.385 0.594 0.563 0.267 0.228 0.511 0.477 0.756 0.729 0.135 0.135 0.276 0.261 0.42 0.386 1.038 0.9 1.96 1.815 2.088 3.258 0.080 1.336-0.254 2.527-1.156 3.549-0.776 0.785-1.729 1.214-2.826 1.262-1.034-0.018-2.054-0.309-3.050-0.564-1.078-0.276-2.091-0.475-3.208-0.486-0.066-0.001-0.133-0.002-0.201-0.003-1.013 0.006-1.978 0.257-2.948 0.526-1.946 0.541-1.946 0.541-2.945 0.527-0.052-0-0.103-0.001-0.156-0.001-1.104-0.029-2.039-0.445-2.836-1.213-0.936-1.066-1.281-2.259-1.202-3.654 0.085-0.941 0.553-1.688 1.202-2.346 0.040-0.041 0.080-0.082 0.121-0.124 0.431-0.44 0.862-0.875 1.329-1.277 0.149-0.131 0.287-0.27 0.425-0.411 0.181-0.183 0.363-0.36 0.559-0.527 0.21-0.179 0.404-0.37 0.598-0.566 0.231-0.234 0.467-0.455 0.717-0.668 0.153-0.136 0.296-0.28 0.439-0.426 0.224-0.226 0.451-0.442 0.693-0.647 0.079-0.068 0.157-0.138 0.233-0.209 2.022-1.874 5.328-1.988 7.511-0.331z"></path>
<path d="M22.375 4.188c0.898 0.802 1.315 2.083 1.438 3.25 0.088 1.762-0.141 3.286-1.32 4.654-0.557 0.598-1.285 0.965-2.106 0.999-0.668-0.020-1.238-0.246-1.762-0.652-0.062-0.044-0.124-0.088-0.188-0.133-0.948-0.83-1.425-2.211-1.551-3.434-0.005-0.103-0.009-0.206-0.012-0.309-0.002-0.047-0.005-0.094-0.007-0.143-0.043-1.415 0.33-2.989 1.32-4.045 1.195-1.249 2.886-1.292 4.188-0.188z"></path>
<path d="M13.493 4.063c0.044 0.041 0.087 0.082 0.132 0.124 0.070 0.065 0.070 0.065 0.142 0.132 0.993 1.008 1.355 2.564 1.366 3.941-0.021 1.446-0.456 2.95-1.508 3.989-0.634 0.535-1.338 0.871-2.185 0.836-0.912-0.114-1.605-0.581-2.19-1.274-0.411-0.56-0.667-1.155-0.875-1.813-0.021-0.065-0.043-0.13-0.065-0.197-0.376-1.391-0.198-3.078 0.44-4.366 0.027-0.057 0.054-0.115 0.081-0.174 0.403-0.807 1.046-1.45 1.903-1.756 0.963-0.275 1.987-0.104 2.759 0.556z"></path>
<path d="M29.365 10.322c0.815 0.697 1.097 1.687 1.186 2.721 0.081 1.485-0.326 3.127-1.304 4.275-0.567 0.625-1.189 1.032-2.041 1.141-0.695 0.026-1.276-0.243-1.779-0.709-0.322-0.337-0.517-0.689-0.677-1.125-0.019-0.052-0.038-0.104-0.058-0.157-0.456-1.425-0.159-3.121 0.488-4.437 0.194-0.377 0.409-0.717 0.695-1.031 0.047-0.053 0.094-0.105 0.142-0.159 0.908-0.966 2.208-1.336 3.348-0.519z"></path>
<path d="M5.4 10.314c1.218 0.924 1.85 2.33 2.056 3.818 0.136 1.181 0.011 2.446-0.706 3.43-0.355 0.436-0.812 0.771-1.375 0.875-0.95 0.074-1.588-0.185-2.308-0.789-1.008-0.936-1.536-2.547-1.588-3.897-0.018-1.234 0.101-2.358 0.983-3.297 0.863-0.752 1.997-0.747 2.938-0.14z"></path>
</symbol>
<symbol id="icon-arrow-up2" viewBox="0 0 32 32">
			<path d="M27.414 12.586l-10-10c-0.781-0.781-2.047-0.781-2.828 0l-10 10c-0.781 0.781-0.781 2.047 0 2.828s2.047 0.781 2.828 0l6.586-6.586v19.172c0 1.105 0.895 2 2 2s2-0.895 2-2v-19.172l6.586 6.586c0.39 0.39 0.902 0.586 1.414 0.586s1.024-0.195 1.414-0.586c0.781-0.781 0.781-2.047 0-2.828z">
			</path>
		</symbol>
</defs>
</svg>
